<svg width="200" height="200" viewBox="0 0 200 200" fill="none" xmlns="http://www.w3.org/2000/svg">
<rect width="200" height="200" fill="black"/>
<path fill-rule="evenodd" clip-rule="evenodd" d="M171.68 99.9783C171.68 139.77 139.418 172.027 99.6215 172.027C83.9497 172.027 69.4467 167.025 57.6219 158.53L15.4987 161.376L32.6066 126.513C29.3514 118.301 27.5623 109.349 27.5623 99.9783C27.5623 60.1869 59.8243 27.9297 99.6215 27.9297C139.418 27.9297 171.68 60.1869 171.68 99.9783ZM129.457 98.4104L99.6524 47.7093L69.8476 98.4104L99.6524 116.954L129.457 98.4104ZM99.6524 146.91L129.488 104.364L99.6524 123.063L69.7546 104.364L99.6524 146.91Z" fill="white"/>
</svg>
