<svg width="1202" height="334" viewBox="0 0 1202 334" fill="none" xmlns="http://www.w3.org/2000/svg">
<path d="M532.4 238H507.89V222.52H507.46C503.877 228.54 498.86 233.127 492.41 236.28C486.103 239.433 479.295 241.01 471.985 241.01C464.102 241.01 457.007 239.577 450.7 236.71C444.537 233.7 439.233 229.758 434.79 224.885C430.49 219.868 427.122 214.063 424.685 207.47C422.392 200.733 421.245 193.567 421.245 185.97C421.245 178.373 422.463 171.278 424.9 164.685C427.337 158.092 430.777 152.358 435.22 147.485C439.663 142.612 444.967 138.813 451.13 136.09C457.293 133.223 464.03 131.79 471.34 131.79C476.07 131.79 480.298 132.363 484.025 133.51C487.752 134.513 490.977 135.803 493.7 137.38C496.567 138.957 499.003 140.677 501.01 142.54C503.017 144.403 504.665 146.195 505.955 147.915H506.6V75.46H532.4V238ZM447.475 185.97C447.475 189.983 448.048 193.997 449.195 198.01C450.485 202.023 452.348 205.607 454.785 208.76C457.222 211.913 460.303 214.493 464.03 216.5C467.757 218.507 472.128 219.51 477.145 219.51C481.875 219.51 486.103 218.578 489.83 216.715C493.557 214.708 496.71 212.128 499.29 208.975C502.013 205.822 504.02 202.31 505.31 198.44C506.743 194.427 507.46 190.413 507.46 186.4C507.46 182.387 506.743 178.373 505.31 174.36C504.02 170.347 502.013 166.763 499.29 163.61C496.71 160.457 493.557 157.877 489.83 155.87C486.103 153.863 481.875 152.86 477.145 152.86C472.128 152.86 467.757 153.863 464.03 155.87C460.303 157.733 457.222 160.242 454.785 163.395C452.348 166.548 450.485 170.132 449.195 174.145C448.048 178.015 447.475 181.957 447.475 185.97ZM557.725 134.8H583.525V238H557.725V134.8ZM554.07 99.755C554.07 95.5983 555.575 92.015 558.585 89.005C561.738 85.8517 565.68 84.275 570.41 84.275C575.14 84.275 579.081 85.78 582.235 88.79C585.531 91.6567 587.18 95.3117 587.18 99.755C587.18 104.198 585.531 107.925 582.235 110.935C579.081 113.802 575.14 115.235 570.41 115.235C565.68 115.235 561.738 113.73 558.585 110.72C555.575 107.567 554.07 103.912 554.07 99.755ZM664.919 162.32C662.626 159.31 659.472 156.73 655.459 154.58C651.446 152.287 647.074 151.14 642.344 151.14C638.187 151.14 634.389 152 630.949 153.72C627.509 155.44 625.789 158.307 625.789 162.32C625.789 166.333 627.652 169.2 631.379 170.92C635.249 172.497 640.839 174.145 648.149 175.865C652.019 176.725 655.889 177.872 659.759 179.305C663.772 180.738 667.356 182.673 670.509 185.11C673.806 187.403 676.457 190.342 678.464 193.925C680.471 197.365 681.474 201.593 681.474 206.61C681.474 212.917 680.256 218.292 677.819 222.735C675.526 227.035 672.372 230.547 668.359 233.27C664.489 235.993 659.902 237.928 654.599 239.075C649.439 240.365 644.064 241.01 638.474 241.01C630.447 241.01 622.636 239.577 615.039 236.71C607.442 233.7 601.136 229.472 596.119 224.025L613.104 208.115C615.971 211.842 619.697 214.923 624.284 217.36C628.871 219.797 633.959 221.015 639.549 221.015C641.412 221.015 643.276 220.8 645.139 220.37C647.146 219.94 648.937 219.295 650.514 218.435C652.234 217.432 653.596 216.142 654.599 214.565C655.602 212.988 656.104 211.053 656.104 208.76C656.104 204.46 654.097 201.378 650.084 199.515C646.214 197.652 640.337 195.788 632.454 193.925C628.584 193.065 624.786 191.99 621.059 190.7C617.476 189.267 614.251 187.475 611.384 185.325C608.517 183.032 606.224 180.237 604.504 176.94C602.784 173.643 601.924 169.558 601.924 164.685C601.924 158.952 603.071 154.007 605.364 149.85C607.801 145.693 610.954 142.325 614.824 139.745C618.694 137.022 623.066 135.015 627.939 133.725C632.812 132.435 637.829 131.79 642.989 131.79C650.442 131.79 657.681 133.08 664.704 135.66C671.871 138.24 677.532 142.182 681.689 147.485L664.919 162.32ZM767.976 163.395C765.97 160.528 762.96 158.163 758.946 156.3C754.933 154.293 750.848 153.29 746.691 153.29C741.961 153.29 737.805 154.293 734.221 156.3C730.638 158.163 727.628 160.672 725.191 163.825C722.898 166.978 721.178 170.562 720.031 174.575C718.885 178.445 718.311 182.387 718.311 186.4C718.311 190.413 718.885 194.427 720.031 198.44C721.321 202.31 723.185 205.822 725.621 208.975C728.058 212.128 731.068 214.708 734.651 216.715C738.378 218.578 742.678 219.51 747.551 219.51C751.565 219.51 755.578 218.722 759.591 217.145C763.605 215.568 766.83 213.275 769.266 210.265L785.391 226.605C781.091 231.192 775.573 234.775 768.836 237.355C762.243 239.792 755.076 241.01 747.336 241.01C739.74 241.01 732.501 239.792 725.621 237.355C718.885 234.918 712.936 231.335 707.776 226.605C702.759 221.875 698.746 216.142 695.736 209.405C692.869 202.668 691.436 195 691.436 186.4C691.436 178.087 692.869 170.562 695.736 163.825C698.746 157.088 702.759 151.355 707.776 146.625C712.793 141.895 718.598 138.24 725.191 135.66C731.928 133.08 739.095 131.79 746.691 131.79C754.288 131.79 761.598 133.223 768.621 136.09C775.788 138.957 781.45 142.898 785.606 147.915L767.976 163.395ZM789.967 185.97C789.967 177.8 791.4 170.418 794.267 163.825C797.277 157.088 801.29 151.355 806.307 146.625C811.323 141.895 817.272 138.24 824.152 135.66C831.032 133.08 838.342 131.79 846.082 131.79C853.822 131.79 861.132 133.08 868.012 135.66C874.892 138.24 880.84 141.895 885.857 146.625C890.873 151.355 894.815 157.088 897.682 163.825C900.692 170.418 902.197 177.8 902.197 185.97C902.197 194.14 900.692 201.593 897.682 208.33C894.815 215.067 890.873 220.872 885.857 225.745C880.84 230.475 874.892 234.202 868.012 236.925C861.132 239.648 853.822 241.01 846.082 241.01C838.342 241.01 831.032 239.648 824.152 236.925C817.272 234.202 811.323 230.475 806.307 225.745C801.29 220.872 797.277 215.067 794.267 208.33C791.4 201.593 789.967 194.14 789.967 185.97ZM816.197 185.97C816.197 189.983 816.77 193.997 817.917 198.01C819.207 202.023 821.07 205.607 823.507 208.76C825.943 211.913 829.025 214.493 832.752 216.5C836.478 218.507 840.922 219.51 846.082 219.51C851.242 219.51 855.685 218.507 859.412 216.5C863.138 214.493 866.22 211.913 868.657 208.76C871.093 205.607 872.885 202.023 874.032 198.01C875.322 193.997 875.967 189.983 875.967 185.97C875.967 181.957 875.322 178.015 874.032 174.145C872.885 170.132 871.093 166.548 868.657 163.395C866.22 160.242 863.138 157.733 859.412 155.87C855.685 153.863 851.242 152.86 846.082 152.86C840.922 152.86 836.478 153.863 832.752 155.87C829.025 157.733 825.943 160.242 823.507 163.395C821.07 166.548 819.207 170.132 817.917 174.145C816.77 178.015 816.197 181.957 816.197 185.97ZM905.282 134.8H933.447L960.537 210.05H960.967L988.272 134.8H1015.58L974.512 238H946.992L905.282 134.8ZM1097.21 176.08C1097.21 172.783 1096.71 169.63 1095.71 166.62C1094.85 163.61 1093.41 160.958 1091.41 158.665C1089.4 156.372 1086.82 154.58 1083.67 153.29C1080.66 151.857 1077.07 151.14 1072.92 151.14C1065.18 151.14 1058.58 153.505 1053.14 158.235C1047.83 162.822 1044.9 168.77 1044.32 176.08H1097.21ZM1123.01 187.69C1123.01 188.837 1123.01 189.983 1123.01 191.13C1123.01 192.277 1122.94 193.423 1122.8 194.57H1044.32C1044.61 198.297 1045.54 201.737 1047.12 204.89C1048.84 207.9 1051.06 210.552 1053.78 212.845C1056.51 214.995 1059.59 216.715 1063.03 218.005C1066.47 219.295 1070.05 219.94 1073.78 219.94C1080.23 219.94 1085.67 218.793 1090.12 216.5C1094.56 214.063 1098.22 210.767 1101.08 206.61L1118.28 220.37C1108.11 234.13 1093.34 241.01 1073.99 241.01C1065.97 241.01 1058.58 239.792 1051.85 237.355C1045.11 234.775 1039.23 231.192 1034.22 226.605C1029.34 222.018 1025.47 216.428 1022.61 209.835C1019.88 203.098 1018.52 195.502 1018.52 187.045C1018.52 178.732 1019.88 171.207 1022.61 164.47C1025.47 157.59 1029.34 151.785 1034.22 147.055C1039.09 142.182 1044.82 138.455 1051.42 135.875C1058.15 133.152 1065.39 131.79 1073.13 131.79C1080.3 131.79 1086.89 133.008 1092.91 135.445C1099.08 137.738 1104.38 141.25 1108.82 145.98C1113.27 150.567 1116.71 156.372 1119.14 163.395C1121.72 170.275 1123.01 178.373 1123.01 187.69Z" fill="white"/>
<g clip-path="url(#clip0_222_3736)">
<path fill-rule="evenodd" clip-rule="evenodd" d="M157.46 325.643C161.911 328.274 167.442 328.274 171.893 325.643L304.872 247.039C311.656 243.029 313.87 234.259 309.802 227.51L176.823 6.86151C171.31 -2.28717 158.044 -2.28717 152.53 6.86149L19.5501 227.509C15.4827 234.258 17.6968 243.029 24.4801 247.038L157.46 325.643ZM128.408 128.777H172.785C203.586 128.777 228.555 153.747 228.555 184.548C228.555 215.349 203.586 240.318 172.785 240.318H128.408C122.116 240.318 117.015 235.217 117.015 228.925V140.17C117.015 133.878 122.116 128.777 128.408 128.777Z" fill="white"/>
</g>
<defs>
<clipPath id="clip0_222_3736">
<rect width="329.91" height="329.91" fill="white"/>
</clipPath>
</defs>
</svg>
