<svg width="2446" height="564" viewBox="0 0 2446 564" fill="none" xmlns="http://www.w3.org/2000/svg">
<path d="M183.6 100.45C214.2 100.45 241.5 105.55 265.5 115.75L245.7 162.1C230.4 156.1 213.45 153.1 194.85 153.1C180.75 153.1 170.55 155.65 164.25 160.75C158.25 165.85 155.25 174.25 155.25 185.95V217.9H233.1L225 267.4H155.25V442H84.6V267.4H34.2V217.9H84.6V183.7C84.6 159.1 93.15 139.15 110.25 123.85C127.65 108.25 152.1 100.45 183.6 100.45ZM483.574 195.85C497.974 195.85 511.174 198.25 523.174 203.05L510.124 302.95H465.124V258.85C451.924 261.25 440.224 268.45 430.024 280.45C419.824 292.45 411.874 307.6 406.174 325.9V394.3H453.424V442H303.574V394.3H335.074V250.3H303.574V203.05H389.524L402.124 256.6C410.824 236.2 421.774 221.05 434.974 211.15C448.174 200.95 464.374 195.85 483.574 195.85ZM772.298 373.15C772.298 381.85 773.498 388.3 775.898 392.5C778.298 396.7 782.348 399.85 788.048 401.95L773.198 448.75C758.798 447.25 746.798 444.1 737.198 439.3C727.598 434.2 720.098 426.85 714.698 417.25C705.698 427.75 694.298 435.85 680.498 441.55C666.698 446.95 651.998 449.65 636.398 449.65C611.798 449.65 592.148 442.75 577.448 428.95C562.748 414.85 555.398 396.7 555.398 374.5C555.398 348.7 565.598 328.75 585.998 314.65C606.398 300.25 635.048 293.05 671.948 293.05H703.898V284.5C703.898 259.9 688.148 247.6 656.648 247.6C648.548 247.6 638.348 248.8 626.048 251.2C614.048 253.3 602.348 256.3 590.948 260.2L574.748 212.95C590.048 207.25 605.948 202.9 622.448 199.9C639.248 196.6 654.398 194.95 667.898 194.95C737.498 194.95 772.298 223.15 772.298 279.55V373.15ZM660.698 398.8C668.798 398.8 676.898 396.55 684.998 392.05C693.398 387.25 699.698 380.8 703.898 372.7V333.55H686.348C647.948 333.55 628.748 345.55 628.748 369.55C628.748 378.85 631.448 386.05 636.848 391.15C642.548 396.25 650.498 398.8 660.698 398.8ZM1017.82 194.95C1034.92 194.95 1047.37 200.65 1055.17 212.05C1063.27 223.15 1067.32 240.85 1067.32 265.15V442H1006.57V273.25C1006.57 264.55 1005.67 258.55 1003.87 255.25C1002.37 251.95 999.373 250.3 994.873 250.3C986.473 250.3 978.223 255.55 970.123 266.05V442H919.723V273.25C919.723 264.55 918.823 258.55 917.023 255.25C915.523 251.95 912.523 250.3 908.023 250.3C899.623 250.3 891.373 255.55 883.273 266.05V442H821.623V203.05H873.373L878.323 226C886.123 215.2 893.773 207.4 901.273 202.6C909.073 197.5 918.073 194.95 928.273 194.95C937.573 194.95 945.373 197.35 951.673 202.15C957.973 206.65 962.473 213.7 965.173 223.3C981.373 204.4 998.923 194.95 1017.82 194.95ZM1172.45 343.45C1176.95 379.75 1196.15 397.9 1230.05 397.9C1250.45 397.9 1270.85 391.3 1291.25 378.1L1319.6 416.8C1307.9 427 1293.95 435.1 1277.75 441.1C1261.55 446.8 1243.7 449.65 1224.2 449.65C1197.5 449.65 1174.85 444.4 1156.25 433.9C1137.65 423.1 1123.55 408.25 1113.95 389.35C1104.65 370.15 1100 347.95 1100 322.75C1100 298.75 1104.5 277.15 1113.5 257.95C1122.8 238.45 1136.15 223.15 1153.55 212.05C1171.25 200.65 1192.25 194.95 1216.55 194.95C1239.35 194.95 1259.15 199.9 1275.95 209.8C1292.75 219.4 1305.65 233.5 1314.65 252.1C1323.95 270.4 1328.6 292.3 1328.6 317.8C1328.6 327.7 1328.15 336.25 1327.25 343.45H1172.45ZM1216.55 242.65C1203.65 242.65 1193.3 247.45 1185.5 257.05C1177.7 266.35 1173.05 280.75 1171.55 300.25H1259.3C1258.7 261.85 1244.45 242.65 1216.55 242.65ZM1476.47 398.8C1488.77 398.8 1498.37 397 1505.27 393.4C1512.47 389.5 1516.07 383.8 1516.07 376.3C1516.07 370.9 1514.57 366.55 1511.57 363.25C1508.87 359.95 1503.62 356.8 1495.82 353.8C1488.02 350.5 1475.87 346.6 1459.37 342.1C1435.37 335.8 1417.07 327.1 1404.47 316C1391.87 304.6 1385.57 289 1385.57 269.2C1385.57 247.3 1394.57 229.45 1412.57 215.65C1430.87 201.85 1456.37 194.95 1489.07 194.95C1526.87 194.95 1559.12 204.7 1585.82 224.2L1557.47 266.05C1535.57 252.55 1513.52 245.8 1491.32 245.8C1479.62 245.8 1470.92 247.3 1465.22 250.3C1459.82 253.3 1457.12 257.95 1457.12 264.25C1457.12 268.45 1458.47 272.05 1461.17 275.05C1464.17 277.75 1469.57 280.6 1477.37 283.6C1485.47 286.6 1497.47 290.35 1513.37 294.85C1530.47 299.65 1544.42 304.9 1555.22 310.6C1566.32 316.3 1574.87 323.95 1580.87 333.55C1586.87 343.15 1589.87 355.45 1589.87 370.45C1589.87 387.25 1584.77 401.65 1574.57 413.65C1564.37 425.65 1550.72 434.65 1533.62 440.65C1516.52 446.65 1497.62 449.65 1476.92 449.65C1454.72 449.65 1434.62 446.5 1416.62 440.2C1398.62 433.9 1383.32 425.05 1370.72 413.65L1406.27 373.6C1427.87 390.4 1451.27 398.8 1476.47 398.8ZM1704 399.25C1704 385.75 1708.8 374.05 1718.4 364.15C1728.3 354.25 1740.15 349.3 1753.95 349.3C1767.75 349.3 1779.45 354.25 1789.05 364.15C1798.95 374.05 1803.9 385.75 1803.9 399.25C1803.9 413.05 1798.95 424.9 1789.05 434.8C1779.45 444.7 1767.75 449.65 1753.95 449.65C1740.15 449.65 1728.3 444.7 1718.4 434.8C1708.8 424.9 1704 413.05 1704 399.25ZM2055.27 77.95C2067.27 77.95 2077.17 81.85 2084.97 89.65C2093.07 97.15 2097.12 106.6 2097.12 118C2097.12 129.4 2093.07 139 2084.97 146.8C2077.17 154.3 2067.27 158.05 2055.27 158.05C2042.67 158.05 2032.47 154.3 2024.67 146.8C2016.87 139.3 2012.97 129.7 2012.97 118C2012.97 106.6 2016.87 97.15 2024.67 89.65C2032.77 81.85 2042.97 77.95 2055.27 77.95ZM2101.17 372.7C2101.17 406.6 2094.87 434.65 2082.27 456.85C2069.67 479.35 2050.92 497.2 2026.02 510.4C2001.42 523.9 1969.77 534.4 1931.07 541.9L1920.27 487.45C1945.77 481.75 1966.32 474.7 1981.92 466.3C1997.82 457.9 2009.82 446.65 2017.92 432.55C2026.02 418.15 2030.07 399.7 2030.07 377.2V251.65H1944.57V203.05H2101.17V372.7ZM2285.94 398.8C2298.24 398.8 2307.84 397 2314.74 393.4C2321.94 389.5 2325.54 383.8 2325.54 376.3C2325.54 370.9 2324.04 366.55 2321.04 363.25C2318.34 359.95 2313.09 356.8 2305.29 353.8C2297.49 350.5 2285.34 346.6 2268.84 342.1C2244.84 335.8 2226.54 327.1 2213.94 316C2201.34 304.6 2195.04 289 2195.04 269.2C2195.04 247.3 2204.04 229.45 2222.04 215.65C2240.34 201.85 2265.84 194.95 2298.54 194.95C2336.34 194.95 2368.59 204.7 2395.29 224.2L2366.94 266.05C2345.04 252.55 2322.99 245.8 2300.79 245.8C2289.09 245.8 2280.39 247.3 2274.69 250.3C2269.29 253.3 2266.59 257.95 2266.59 264.25C2266.59 268.45 2267.94 272.05 2270.64 275.05C2273.64 277.75 2279.04 280.6 2286.84 283.6C2294.94 286.6 2306.94 290.35 2322.84 294.85C2339.94 299.65 2353.89 304.9 2364.69 310.6C2375.79 316.3 2384.34 323.95 2390.34 333.55C2396.34 343.15 2399.34 355.45 2399.34 370.45C2399.34 387.25 2394.24 401.65 2384.04 413.65C2373.84 425.65 2360.19 434.65 2343.09 440.65C2325.99 446.65 2307.09 449.65 2286.39 449.65C2264.19 449.65 2244.09 446.5 2226.09 440.2C2208.09 433.9 2192.79 425.05 2180.19 413.65L2215.74 373.6C2237.34 390.4 2260.74 398.8 2285.94 398.8Z" fill="white"/>
</svg>
